<mxfile host="app.diagrams.net" modified="2023-04-10T05:30:36.348Z" agent="Mozilla/5.0 (Macintosh; Intel Mac OS X 10_15_7) AppleWebKit/537.36 (KHTML, like Gecko) Chrome/112.0.0.0 Safari/537.36" etag="2iMGZCZjNq7TXzAbXITP" version="21.1.5" type="github" pages="2">
  <diagram name="Page-1" id="DGSTIJ6pXe5sOyClR_8t">
    <mxGraphModel dx="1122" dy="767" grid="0" gridSize="10" guides="1" tooltips="1" connect="1" arrows="1" fold="1" page="1" pageScale="1" pageWidth="1169" pageHeight="827" math="0" shadow="0">
      <root>
        <mxCell id="0" />
        <mxCell id="1" parent="0" />
        <mxCell id="UWagi5KZb4_fAXJCpjGl-2" value="Initial Pseudo State" style="text;html=1;align=center;verticalAlign=middle;resizable=0;points=[];autosize=1;strokeColor=none;fillColor=none;" vertex="1" parent="1">
          <mxGeometry x="57" y="346.5" width="130" height="30" as="geometry" />
        </mxCell>
        <mxCell id="UWagi5KZb4_fAXJCpjGl-8" style="edgeStyle=orthogonalEdgeStyle;rounded=0;orthogonalLoop=1;jettySize=auto;html=1;exitX=1;exitY=0.5;exitDx=0;exitDy=0;entryX=0;entryY=0.5;entryDx=0;entryDy=0;" edge="1" parent="1" source="UWagi5KZb4_fAXJCpjGl-3" target="UWagi5KZb4_fAXJCpjGl-7">
          <mxGeometry relative="1" as="geometry" />
        </mxCell>
        <mxCell id="UWagi5KZb4_fAXJCpjGl-3" value="" style="ellipse;html=1;shape=startState;fillColor=#000000;strokeColor=#ff0000;" vertex="1" parent="1">
          <mxGeometry x="110" y="309" width="30" height="30" as="geometry" />
        </mxCell>
        <mxCell id="UWagi5KZb4_fAXJCpjGl-19" style="edgeStyle=orthogonalEdgeStyle;rounded=0;orthogonalLoop=1;jettySize=auto;html=1;exitX=1;exitY=0.5;exitDx=0;exitDy=0;entryX=0;entryY=0.5;entryDx=0;entryDy=0;" edge="1" parent="1" source="UWagi5KZb4_fAXJCpjGl-7" target="UWagi5KZb4_fAXJCpjGl-9">
          <mxGeometry relative="1" as="geometry" />
        </mxCell>
        <mxCell id="UWagi5KZb4_fAXJCpjGl-7" value="Idle&amp;nbsp;" style="rounded=1;whiteSpace=wrap;html=1;" vertex="1" parent="1">
          <mxGeometry x="180" y="301.5" width="70" height="45" as="geometry" />
        </mxCell>
        <mxCell id="UWagi5KZb4_fAXJCpjGl-20" style="edgeStyle=orthogonalEdgeStyle;rounded=0;orthogonalLoop=1;jettySize=auto;html=1;exitX=1;exitY=0.5;exitDx=0;exitDy=0;entryX=0;entryY=0.5;entryDx=0;entryDy=0;" edge="1" parent="1" source="UWagi5KZb4_fAXJCpjGl-9" target="UWagi5KZb4_fAXJCpjGl-11">
          <mxGeometry relative="1" as="geometry" />
        </mxCell>
        <mxCell id="UWagi5KZb4_fAXJCpjGl-9" value="DIal Tone" style="rounded=1;whiteSpace=wrap;html=1;" vertex="1" parent="1">
          <mxGeometry x="310" y="301.5" width="70" height="45" as="geometry" />
        </mxCell>
        <mxCell id="UWagi5KZb4_fAXJCpjGl-14" value="" style="edgeStyle=orthogonalEdgeStyle;rounded=0;orthogonalLoop=1;jettySize=auto;html=1;" edge="1" parent="1" source="UWagi5KZb4_fAXJCpjGl-11" target="UWagi5KZb4_fAXJCpjGl-13">
          <mxGeometry relative="1" as="geometry" />
        </mxCell>
        <mxCell id="UWagi5KZb4_fAXJCpjGl-16" style="edgeStyle=orthogonalEdgeStyle;rounded=0;orthogonalLoop=1;jettySize=auto;html=1;exitX=0.5;exitY=0;exitDx=0;exitDy=0;" edge="1" parent="1" source="UWagi5KZb4_fAXJCpjGl-11">
          <mxGeometry relative="1" as="geometry">
            <mxPoint x="510" y="309" as="targetPoint" />
          </mxGeometry>
        </mxCell>
        <mxCell id="UWagi5KZb4_fAXJCpjGl-11" value="Dialling" style="rounded=1;whiteSpace=wrap;html=1;" vertex="1" parent="1">
          <mxGeometry x="430" y="301.5" width="70" height="45" as="geometry" />
        </mxCell>
        <mxCell id="UWagi5KZb4_fAXJCpjGl-26" value="" style="edgeStyle=orthogonalEdgeStyle;rounded=0;orthogonalLoop=1;jettySize=auto;html=1;" edge="1" parent="1" source="UWagi5KZb4_fAXJCpjGl-13" target="UWagi5KZb4_fAXJCpjGl-25">
          <mxGeometry relative="1" as="geometry" />
        </mxCell>
        <mxCell id="UWagi5KZb4_fAXJCpjGl-39" value="" style="edgeStyle=orthogonalEdgeStyle;rounded=0;orthogonalLoop=1;jettySize=auto;html=1;" edge="1" parent="1" source="UWagi5KZb4_fAXJCpjGl-13" target="UWagi5KZb4_fAXJCpjGl-38">
          <mxGeometry relative="1" as="geometry" />
        </mxCell>
        <mxCell id="UWagi5KZb4_fAXJCpjGl-40" value="" style="edgeStyle=orthogonalEdgeStyle;rounded=0;orthogonalLoop=1;jettySize=auto;html=1;" edge="1" parent="1" source="UWagi5KZb4_fAXJCpjGl-13" target="UWagi5KZb4_fAXJCpjGl-38">
          <mxGeometry relative="1" as="geometry" />
        </mxCell>
        <mxCell id="UWagi5KZb4_fAXJCpjGl-42" style="edgeStyle=orthogonalEdgeStyle;rounded=0;orthogonalLoop=1;jettySize=auto;html=1;exitX=0.5;exitY=1;exitDx=0;exitDy=0;entryX=0.5;entryY=0;entryDx=0;entryDy=0;" edge="1" parent="1" source="UWagi5KZb4_fAXJCpjGl-13" target="UWagi5KZb4_fAXJCpjGl-41">
          <mxGeometry relative="1" as="geometry" />
        </mxCell>
        <mxCell id="UWagi5KZb4_fAXJCpjGl-13" value="Connecting" style="rounded=1;whiteSpace=wrap;html=1;" vertex="1" parent="1">
          <mxGeometry x="570" y="301.5" width="70" height="45" as="geometry" />
        </mxCell>
        <mxCell id="UWagi5KZb4_fAXJCpjGl-15" value="&lt;font style=&quot;font-size: 10px;&quot;&gt;Valid Number&lt;/font&gt;" style="text;html=1;align=center;verticalAlign=middle;resizable=0;points=[];autosize=1;strokeColor=none;fillColor=none;" vertex="1" parent="1">
          <mxGeometry x="490" y="319" width="80" height="30" as="geometry" />
        </mxCell>
        <mxCell id="UWagi5KZb4_fAXJCpjGl-22" value="" style="endArrow=classic;html=1;rounded=0;" edge="1" parent="1">
          <mxGeometry width="50" height="50" relative="1" as="geometry">
            <mxPoint x="500" y="301.5" as="sourcePoint" />
            <mxPoint x="570" y="229" as="targetPoint" />
          </mxGeometry>
        </mxCell>
        <mxCell id="UWagi5KZb4_fAXJCpjGl-43" style="edgeStyle=orthogonalEdgeStyle;rounded=0;orthogonalLoop=1;jettySize=auto;html=1;exitX=1;exitY=0.5;exitDx=0;exitDy=0;entryX=0.5;entryY=0;entryDx=0;entryDy=0;" edge="1" parent="1" source="UWagi5KZb4_fAXJCpjGl-23" target="UWagi5KZb4_fAXJCpjGl-31">
          <mxGeometry relative="1" as="geometry" />
        </mxCell>
        <mxCell id="UWagi5KZb4_fAXJCpjGl-23" value="Recorded Message" style="rounded=1;whiteSpace=wrap;html=1;" vertex="1" parent="1">
          <mxGeometry x="570" y="179" width="90" height="50" as="geometry" />
        </mxCell>
        <mxCell id="UWagi5KZb4_fAXJCpjGl-28" value="" style="edgeStyle=orthogonalEdgeStyle;rounded=0;orthogonalLoop=1;jettySize=auto;html=1;" edge="1" parent="1" source="UWagi5KZb4_fAXJCpjGl-25" target="UWagi5KZb4_fAXJCpjGl-27">
          <mxGeometry relative="1" as="geometry" />
        </mxCell>
        <mxCell id="UWagi5KZb4_fAXJCpjGl-25" value="Ringing" style="rounded=1;whiteSpace=wrap;html=1;" vertex="1" parent="1">
          <mxGeometry x="700" y="301.5" width="70" height="45" as="geometry" />
        </mxCell>
        <mxCell id="UWagi5KZb4_fAXJCpjGl-32" value="" style="edgeStyle=orthogonalEdgeStyle;rounded=0;orthogonalLoop=1;jettySize=auto;html=1;" edge="1" parent="1" source="UWagi5KZb4_fAXJCpjGl-27" target="UWagi5KZb4_fAXJCpjGl-31">
          <mxGeometry relative="1" as="geometry" />
        </mxCell>
        <mxCell id="UWagi5KZb4_fAXJCpjGl-27" value="Connected" style="rounded=1;whiteSpace=wrap;html=1;" vertex="1" parent="1">
          <mxGeometry x="830" y="301.5" width="70" height="45" as="geometry" />
        </mxCell>
        <mxCell id="UWagi5KZb4_fAXJCpjGl-29" value="Call Phone &lt;br&gt;Answers" style="text;html=1;align=center;verticalAlign=middle;resizable=0;points=[];autosize=1;strokeColor=none;fillColor=none;" vertex="1" parent="1">
          <mxGeometry x="760" y="269" width="80" height="40" as="geometry" />
        </mxCell>
        <mxCell id="UWagi5KZb4_fAXJCpjGl-30" value="Routed" style="text;html=1;align=center;verticalAlign=middle;resizable=0;points=[];autosize=1;strokeColor=none;fillColor=none;" vertex="1" parent="1">
          <mxGeometry x="640" y="279" width="60" height="30" as="geometry" />
        </mxCell>
        <mxCell id="UWagi5KZb4_fAXJCpjGl-35" style="edgeStyle=orthogonalEdgeStyle;rounded=0;orthogonalLoop=1;jettySize=auto;html=1;exitX=1;exitY=0.5;exitDx=0;exitDy=0;entryX=0;entryY=0.5;entryDx=0;entryDy=0;" edge="1" parent="1" source="UWagi5KZb4_fAXJCpjGl-31" target="UWagi5KZb4_fAXJCpjGl-34">
          <mxGeometry relative="1" as="geometry" />
        </mxCell>
        <mxCell id="UWagi5KZb4_fAXJCpjGl-37" style="edgeStyle=orthogonalEdgeStyle;rounded=0;orthogonalLoop=1;jettySize=auto;html=1;exitX=0.5;exitY=1;exitDx=0;exitDy=0;entryX=0.5;entryY=1;entryDx=0;entryDy=0;" edge="1" parent="1" source="UWagi5KZb4_fAXJCpjGl-31" target="UWagi5KZb4_fAXJCpjGl-7">
          <mxGeometry relative="1" as="geometry">
            <Array as="points">
              <mxPoint x="985" y="479" />
              <mxPoint x="215" y="479" />
            </Array>
          </mxGeometry>
        </mxCell>
        <mxCell id="UWagi5KZb4_fAXJCpjGl-31" value="Disconnected" style="rounded=1;whiteSpace=wrap;html=1;" vertex="1" parent="1">
          <mxGeometry x="950" y="301.5" width="70" height="45" as="geometry" />
        </mxCell>
        <mxCell id="UWagi5KZb4_fAXJCpjGl-33" value="Call/Phone &lt;br&gt;Hangs Up" style="text;html=1;align=center;verticalAlign=middle;resizable=0;points=[];autosize=1;strokeColor=none;fillColor=none;" vertex="1" parent="1">
          <mxGeometry x="880" y="269" width="80" height="40" as="geometry" />
        </mxCell>
        <mxCell id="UWagi5KZb4_fAXJCpjGl-34" value="" style="ellipse;html=1;shape=endState;fillColor=#000000;strokeColor=#ff0000;" vertex="1" parent="1">
          <mxGeometry x="1070" y="309" width="30" height="30" as="geometry" />
        </mxCell>
        <mxCell id="UWagi5KZb4_fAXJCpjGl-36" value="Final State" style="text;html=1;align=center;verticalAlign=middle;resizable=0;points=[];autosize=1;strokeColor=none;fillColor=none;" vertex="1" parent="1">
          <mxGeometry x="1045" y="269" width="80" height="30" as="geometry" />
        </mxCell>
        <mxCell id="UWagi5KZb4_fAXJCpjGl-45" style="edgeStyle=orthogonalEdgeStyle;rounded=0;orthogonalLoop=1;jettySize=auto;html=1;exitX=0.5;exitY=1;exitDx=0;exitDy=0;" edge="1" parent="1" source="UWagi5KZb4_fAXJCpjGl-38">
          <mxGeometry relative="1" as="geometry">
            <mxPoint x="545.4705882352941" y="435.52941176470586" as="targetPoint" />
          </mxGeometry>
        </mxCell>
        <mxCell id="UWagi5KZb4_fAXJCpjGl-38" value="Call Busy&amp;nbsp;" style="rounded=1;whiteSpace=wrap;html=1;" vertex="1" parent="1">
          <mxGeometry x="510" y="390" width="70" height="45" as="geometry" />
        </mxCell>
        <mxCell id="UWagi5KZb4_fAXJCpjGl-41" value="&lt;span style=&quot;font-size: 10px;&quot;&gt;Unable To Connect&lt;/span&gt;" style="rounded=1;whiteSpace=wrap;html=1;" vertex="1" parent="1">
          <mxGeometry x="630" y="390" width="70" height="45" as="geometry" />
        </mxCell>
        <mxCell id="UWagi5KZb4_fAXJCpjGl-44" value="Call Disconnects/Hangs Up" style="text;html=1;align=center;verticalAlign=middle;resizable=0;points=[];autosize=1;strokeColor=none;fillColor=none;" vertex="1" parent="1">
          <mxGeometry x="725" y="179" width="170" height="30" as="geometry" />
        </mxCell>
        <mxCell id="UWagi5KZb4_fAXJCpjGl-46" value="" style="endArrow=none;html=1;rounded=0;entryX=0.5;entryY=1;entryDx=0;entryDy=0;" edge="1" parent="1" target="UWagi5KZb4_fAXJCpjGl-38">
          <mxGeometry width="50" height="50" relative="1" as="geometry">
            <mxPoint x="545" y="479" as="sourcePoint" />
            <mxPoint x="610" y="259" as="targetPoint" />
          </mxGeometry>
        </mxCell>
        <mxCell id="UWagi5KZb4_fAXJCpjGl-47" value="" style="endArrow=none;html=1;rounded=0;entryX=0.5;entryY=1;entryDx=0;entryDy=0;" edge="1" parent="1" target="UWagi5KZb4_fAXJCpjGl-41">
          <mxGeometry width="50" height="50" relative="1" as="geometry">
            <mxPoint x="665" y="479" as="sourcePoint" />
            <mxPoint x="555" y="445" as="targetPoint" />
          </mxGeometry>
        </mxCell>
        <mxCell id="UWagi5KZb4_fAXJCpjGl-48" value="Number Busy&amp;nbsp;" style="text;html=1;align=center;verticalAlign=middle;resizable=0;points=[];autosize=1;strokeColor=none;fillColor=none;" vertex="1" parent="1">
          <mxGeometry x="510" y="360" width="100" height="30" as="geometry" />
        </mxCell>
        <mxCell id="UWagi5KZb4_fAXJCpjGl-49" value="Number Out of Network &lt;br&gt;Coverage Area" style="text;html=1;align=center;verticalAlign=middle;resizable=0;points=[];autosize=1;strokeColor=none;fillColor=none;" vertex="1" parent="1">
          <mxGeometry x="610" y="350" width="150" height="40" as="geometry" />
        </mxCell>
        <mxCell id="UWagi5KZb4_fAXJCpjGl-50" value="Invalid Number" style="text;html=1;align=center;verticalAlign=middle;resizable=0;points=[];autosize=1;strokeColor=none;fillColor=none;rotation=-45;" vertex="1" parent="1">
          <mxGeometry x="510" y="249" width="100" height="30" as="geometry" />
        </mxCell>
      </root>
    </mxGraphModel>
  </diagram>
  <diagram id="Ce935LV4lYqA6n6mytmS" name="Page-2">
    <mxGraphModel dx="954" dy="652" grid="0" gridSize="10" guides="1" tooltips="1" connect="1" arrows="1" fold="1" page="1" pageScale="1" pageWidth="1169" pageHeight="827" math="0" shadow="0">
      <root>
        <mxCell id="0" />
        <mxCell id="1" parent="0" />
      </root>
    </mxGraphModel>
  </diagram>
</mxfile>
